<?xml version="1.0" encoding="UTF-8"?>
<svg id="Layer_1" xmlns="http://www.w3.org/2000/svg" version="1.1" viewBox="0 0 1048.14 605.96">
  <!-- Generator: Adobe Illustrator 29.0.0, SVG Export Plug-In . SVG Version: 2.1.0 Build 186)  -->
  <defs>
    <style>
      .st0 {
        fill: #006e00;
      }

      .st1 {
        fill: #0a0;
      }
    </style>
  </defs>
  <path class="st0" d="M467.25,71.84l-175.71,168.97,9.06-75.53,166.65-93.44ZM740.47,307.39l-69.54,27.56,9.05,78.03c2.22,19.14-9.55,26.77-16.73,27.6-9.97,1.16-20.59-5.69-22.62-23.24l-7.81-67.29-69.55,27.56,6.59,56.83c5.75,47.33,27.27,72.64,63.24,70.25,32.32-2.14,50.84-19.77,60.91-37.3.41-.65,1.74-1.16,2.07-.11l6.98,22.51c.34,1.08,1.4,1.78,2.52,1.64l53.17-6.17c1.27-.15,2.19-1.3,2.04-2.57l-14.98-129.14-5.35-46.16ZM874.17,481.77c58.96-6.84,87.04-43.21,82.24-84.64-4.81-41.43-38.62-54.47-64.52-61.96-24.66-7.23-42.21-8.83-43.83-22.78-1.2-10.36,5.28-17.16,18.43-18.69,16.73-1.94,26.73,4.16,45.64,14.09l26.53-46.28c-22.03-12.39-42.77-24.11-80.22-19.77-51,5.92-81.13,38.49-76.14,81.51,4.39,37.85,37.58,52.57,63.19,60.9,24.75,8.03,43.24,10.73,44.85,24.68,1.25,10.76-4.29,18.67-21.03,20.61-19.52,2.26-32.44-4.71-56.55-17.66l-26.39,47.47c26.96,16.66,56.33,26.18,87.81,22.52Z"/>
  <path class="st1" d="M129.72,205.59l55.64-22.05,31.11,268.2c2.8,24.12,11.65,37.66,26.56,40.62-5.51,14.22-16.8,22.3-33.85,24.3-20.65,2.42-44.42-9.39-47.81-38.16l-31.66-272.91ZM233.54,164.45l179.36,2.21,54.35-94.82-233.71,92.61ZM445.02,328.75c-2.22-19.14,9.55-26.77,16.73-27.6,9.97-1.16,20.59,5.69,22.62,23.24l9.37,80.77,69.54-27.56-8.16-70.3c-5.75-47.33-27.27-72.64-63.24-70.25-32.32,2.14-50.84,19.77-60.91,37.3-.41.65-1.74,1.16-2.07.11l-6.98-22.51c-.34-1.08-1.4-1.78-2.52-1.64l-53.17,6.17c-1.27.15-2.19,1.3-2.04,2.57l14.98,129.14,6.91,59.64,69.54-27.56-10.62-91.51ZM316.52,262.23l-57.26,6.64,25.42,219.13,55.48-21.99-23.64-203.78Z"/>
</svg>